<?xml version="1.0" encoding="UTF-8"?>
<svg width="116px" height="121px" viewBox="0 0 116 121" version="1.1" xmlns="http://www.w3.org/2000/svg" xmlns:xlink="http://www.w3.org/1999/xlink">
    <!-- Generator: Sketch 58 (84663) - https://sketch.com -->
    <title>cog</title>
    <desc>Created with Sketch.</desc>
    <g id="Page-1" stroke="none" stroke-width="1" fill="none" fill-rule="evenodd">
        <g id="cog" fill="#BDBDBD" fill-rule="nonzero">
            <path d="M114.51836,75.0394612 L104.111067,69.0382742 C105.161569,63.3786182 105.161569,57.5725917 104.111067,51.9129357 L114.51836,45.9117487 C115.715443,45.2286867 116.252909,43.8137727 115.862025,42.496439 C113.150265,33.8117944 108.532945,25.9565822 102.49867,19.4187036 C101.57032,18.4185058 100.055644,18.1745551 98.8829908,18.857617 L88.4756981,24.858804 C84.1026808,21.1019634 79.0700463,18.1989502 73.6220973,16.2961348 L73.6220973,4.31815586 C73.6220973,2.95203199 72.6693169,1.75667361 71.3256524,1.46393278 C62.3597453,-0.536462888 53.1739658,-0.438882611 44.6478035,1.46393278 C43.3041389,1.75667361 42.3513586,2.95203199 42.3513586,4.31815586 L42.3513586,16.3205299 C36.9278399,18.2477403 31.8952054,21.1507535 27.4977578,24.8831991 L17.1148953,18.8820121 C15.9178124,18.1989502 14.4275662,18.4185058 13.4992162,19.4430987 C7.46494082,25.9565822 2.84762082,33.8117944 0.135861449,42.5208341 C-0.279453048,43.8381678 0.282443036,45.2530818 1.479526,45.9361437 L11.8868187,51.9373307 C10.8363173,57.5969868 10.8363173,63.4030132 11.8868187,69.0626693 L1.479526,75.0638563 C0.282443036,75.7469182 -0.255022784,77.1618322 0.135861449,78.4791659 C2.84762082,87.1638105 7.46494082,95.0190228 13.4992162,101.556901 C14.4275662,102.557099 15.9422426,102.80105 17.1148953,102.117988 L27.522188,96.1168009 C31.8952054,99.8736415 36.9278399,102.776655 42.3757889,104.67947 L42.3757889,116.681844 C42.3757889,118.047968 43.3285692,119.243326 44.6722338,119.536067 C53.6381408,121.536463 62.8239203,121.438883 71.3500827,119.536067 C72.6937472,119.243326 73.6465275,118.047968 73.6465275,116.681844 L73.6465275,104.67947 C79.0700463,102.75226 84.1026808,99.8492465 88.5001284,96.1168009 L98.9074211,102.117988 C100.104504,102.80105 101.59475,102.581494 102.5231,101.556901 C108.557376,95.0434178 113.174696,87.1882056 115.886455,78.4791659 C116.252909,77.1374371 115.715443,75.7225231 114.51836,75.0394612 Z M57.9867279,79.9916602 C47.2129813,79.9916602 38.4425163,71.2338304 38.4425163,60.4756049 C38.4425163,49.7173795 47.2129813,40.9595497 57.9867279,40.9595497 C68.7604746,40.9595497 77.5309396,49.7173795 77.5309396,60.4756049 C77.5309396,71.2338304 68.7604746,79.9916602 57.9867279,79.9916602 Z" id="Shape"></path>
        </g>
    </g>
</svg>