<?xml version="1.0" encoding="UTF-8"?>
<svg width="92px" height="125px" viewBox="0 0 92 125" version="1.1" xmlns="http://www.w3.org/2000/svg" xmlns:xlink="http://www.w3.org/1999/xlink">
    <!-- Generator: Sketch 58 (84663) - https://sketch.com -->
    <title>2682807 - drop high humidity percentage precipitation rain weather</title>
    <desc>Created with Sketch.</desc>
    <g id="Page-1" stroke="none" stroke-width="1" fill="none" fill-rule="evenodd">
        <g id="2682807---drop-high-humidity-percentage-precipitation-rain-weather">
            <path d="M92,78.0763949 C92,103.557916 71.4050985,124.21477 46,124.21477 C20.5949015,124.21477 0,103.557916 0,78.0763949 C0,37.6990819 37.2972973,0.214769753 46,0.214769753 C54.7027027,0.214769753 92,37.6990819 92,78.0763949 Z" id="Path" fill="#0BAEFF" fill-rule="nonzero"></path>
            <path d="M40.7805531,67.0719998 C40.7805531,75.3770638 35.5352364,79.7047026 29.7903657,79.7047026 C24.0454951,79.7047026 19,75.1769418 19,67.7223964 C19,60.2678509 23.3211418,55.2147698 30.0900981,55.2147698 C36.8590544,55.2147698 40.7805531,60.2928662 40.7805531,67.0719998 Z M25.793934,67.4972591 C25.793934,71.6497911 27.1926851,74.6516215 29.8902765,74.6516215 C32.587868,74.6516215 33.7867975,71.9749894 33.7867975,67.4972591 C33.7867975,63.4698033 32.6877788,60.3428967 29.8153434,60.3428967 C26.9429081,60.3428967 25.8938448,63.5448491 25.8938448,67.4972591 L25.793934,67.4972591 Z M75,83.5820669 C75,91.8871309 69.7546833,96.2147698 64.0098127,96.2147698 C58.264942,96.2147698 53.2694023,91.6870089 53.2194469,84.2324635 C53.1694915,76.777918 57.5405888,71.7248369 64.309545,71.7248369 C71.0785013,71.7248369 75,76.9029943 75,83.5820669 Z M60.1882248,84.0073262 C60.1882248,88.1598582 61.5370205,91.1616886 64.2096343,91.1616886 C66.882248,91.1616886 68.1061552,88.4850565 68.1061552,84.0073262 C68.1061552,79.9798704 67.0570919,76.8529638 64.2096343,76.8529638 C61.3621766,76.8529638 60.2881356,80.0299009 60.2881356,84.0073262 L60.1882248,84.0073262 Z" id="Shape" fill="#E0E0E0" fill-rule="nonzero"></path>
            <path d="M59,56.2147698 L36,93.2147698" id="Path" stroke="#E0E0E0" stroke-width="6" stroke-linecap="round" stroke-linejoin="round"></path>
        </g>
    </g>
</svg>