<?xml version="1.0" encoding="UTF-8"?>
<svg width="97px" height="91px" viewBox="0 0 97 91" version="1.1" xmlns="http://www.w3.org/2000/svg" xmlns:xlink="http://www.w3.org/1999/xlink">
    <!-- Generator: Sketch 58 (84663) - https://sketch.com -->
    <title>loading</title>
    <desc>Created with Sketch.</desc>
    <g id="Page-1" stroke="none" stroke-width="1" fill="none" fill-rule="evenodd">
        <g id="loading" transform="translate(46.453398, 49.194133) scale(1, -1) rotate(73.000000) translate(-46.453398, -49.194133) translate(4.953398, 0.694133)" fill="#BDBDBD" fill-rule="nonzero">
            <path d="M48.5889819,-0.00046772224 C61.5488468,0.0233510116 73.3155726,5.13031863 82.0029395,13.4324167 L70.9351613,24.500186 C64.8992581,18.8485716 57.088998,15.7179774 48.7913911,15.6464008 C30.721621,15.4903405 15.4900786,30.1136653 15.6463347,48.7832166 C15.7945726,66.4937204 30.1529194,81.3548514 48.5,81.3548514 C56.5429819,81.3548514 64.1445746,78.4843578 70.1351069,73.227979 C71.0626694,72.4142357 72.463498,72.4637135 73.3361069,73.3361261 L81.0925867,81.0925996 C82.045377,82.0453892 81.998246,83.5987569 80.9983246,84.5018731 C72.398375,92.2698849 61.0016573,97 48.5,97 C21.7143105,97 0,75.2859027 0,48.5004306 C0,21.7454664 21.833996,-0.0478344144 48.5889819,-0.00046772224 Z" id="Path"></path>
        </g>
    </g>
</svg>