<?xml version="1.0" encoding="UTF-8"?>
<svg width="107px" height="108px" viewBox="0 0 107 108" version="1.1" xmlns="http://www.w3.org/2000/svg" xmlns:xlink="http://www.w3.org/1999/xlink">
    <!-- Generator: Sketch 58 (84663) - https://sketch.com -->
    <title>night-clear</title>
    <desc>Created with Sketch.</desc>
    <g id="Page-1" stroke="none" stroke-width="1" fill="none" fill-rule="evenodd">
        <g id="night-clear" transform="translate(-1.000000, -1.000000)" fill="#EFCC00" fill-rule="nonzero">
            <path d="M83.1330844,78.1130954 C65.8722923,76.670966 50.1976777,67.4796388 40.5151927,53.1226892 C30.8327078,38.7657395 28.1877172,20.7932085 33.3236972,4.25696585 C33.6302871,3.26351094 33.2853798,2.18429651 32.4593907,1.5525517 C31.6334015,0.92080689 30.5011825,0.870264487 29.6221517,1.42589699 C8.79508888,13.4179847 -2.2980966,37.157049 1.86749155,60.8199875 C6.03307971,84.4829261 24.5667596,103.010153 48.2379401,107.174291 C71.9091205,111.338428 95.6564533,100.249105 107.652718,79.4292941 C108.172784,78.5523053 108.103836,77.4466666 107.478842,76.6410339 C106.853848,75.8354012 105.799791,75.493459 104.820663,75.7787053 C97.8077536,77.9381877 90.4451178,78.7306811 83.1330844,78.1130954 Z" id="Path"></path>
        </g>
    </g>
</svg>