<?xml version="1.0" encoding="UTF-8"?>
<svg width="134px" height="123px" viewBox="0 0 134 123" version="1.1" xmlns="http://www.w3.org/2000/svg" xmlns:xlink="http://www.w3.org/1999/xlink">
    <!-- Generator: Sketch 58 (84663) - https://sketch.com -->
    <title>night-cloudy</title>
    <desc>Created with Sketch.</desc>
    <defs>
        <linearGradient x1="24.4644699%" y1="73.2162538%" x2="63.7305027%" y2="39.8283719%" id="linearGradient-1">
            <stop stop-color="#F2F2F2" offset="0%"></stop>
            <stop stop-color="#CFCFCF" offset="100%"></stop>
        </linearGradient>
        <linearGradient x1="72.6181818%" y1="64.7966936%" x2="8.47272727%" y2="22.8606986%" id="linearGradient-2">
            <stop stop-color="#FFFFFF" offset="2%"></stop>
            <stop stop-color="#FFFFFF" stop-opacity="0" offset="100%"></stop>
        </linearGradient>
    </defs>
    <g id="Page-1" stroke="none" stroke-width="1" fill="none" fill-rule="evenodd">
        <g id="night-cloudy" transform="translate(0.000000, 1.000000)" fill-rule="nonzero">
            <path d="M108.229521,46.3654306 C97.9131645,45.5172725 88.53389,39.953264 82.7333114,31.2404733 C76.9327327,22.5276827 75.3385213,11.6089071 78.3996768,1.55935133 C78.5571225,0.982114592 78.3612471,0.365028759 77.9015865,-0.00983210359 C77.4419259,-0.384692967 76.8067983,-0.445303969 76.2865247,-0.163959415 C63.7568896,7.05636723 57.0404557,21.4989541 59.5044492,35.923135 C61.9684428,50.3473159 73.0816215,61.6432072 87.2724893,64.1477114 C101.463357,66.6522157 115.672333,59.8253564 122.77587,47.0897206 C123.103347,46.5571906 123.069406,45.8735982 122.690848,45.3772848 C122.31229,44.8809713 121.669424,44.6772291 121.080434,44.8668995 C116.929684,46.1932751 112.56795,46.7018923 108.229521,46.3654306 L108.229521,46.3654306 Z" id="Path" fill="#EFCC00"></path>
            <path d="M43.4579471,34.6604543 C59.5184737,34.6554002 74.2630645,43.5723729 81.7653227,57.8273131 C94.1600764,50.5530449 109.76858,51.8654681 120.785087,61.1082455 C131.801595,70.3510229 135.858353,85.5376246 130.926594,99.0732964 C125.994835,112.608968 113.134532,121.584518 98.7770661,121.511311 L43.3341353,121.660454 C19.4013532,121.660454 0,102.184841 0,78.1604543 C0,54.1360694 19.4013532,34.6604543 43.3341353,34.6604543 L43.4579471,34.6604543 Z" id="Path" fill="url(#linearGradient-1)"></path>
            <ellipse id="Oval" fill="url(#linearGradient-2)" transform="translate(99.076373, 87.195235) rotate(-74.390000) translate(-99.076373, -87.195235) " cx="99.0763727" cy="87.1952351" rx="34.1530826" ry="34.0241017"></ellipse>
        </g>
    </g>
</svg>