<?xml version="1.0" encoding="UTF-8"?>
<svg width="120px" height="92px" viewBox="0 0 120 92" version="1.1" xmlns="http://www.w3.org/2000/svg" xmlns:xlink="http://www.w3.org/1999/xlink">
    <!-- Generator: Sketch 58 (84663) - https://sketch.com -->
    <title>2682842 - breeze fast speed weather wind windy</title>
    <desc>Created with Sketch.</desc>
    <g id="Page-1" stroke="none" stroke-width="1" fill="none" fill-rule="evenodd" stroke-linecap="round">
        <g id="2682842---breeze-fast-speed-weather-wind-windy" transform="translate(3.000000, 2.000000)" stroke-width="5">
            <path d="M0,59.5725105 L65.4936276,59.5725105 C72.9529911,59.5725105 79,65.6166664 79,73.0725105 L79,73.0725105 C79,80.5283547 72.9529911,86.5725105 65.4936276,86.5725105" id="Path" stroke="#A5A9AA"></path>
            <path d="M79.3239437,0.57251054 C84.1155973,0.57251054 88,4.37809017 88,9.07251054 L88,9.07251054 C88,13.7669309 84.1155973,17.5725105 79.3239437,17.5725105 L0,17.5725105" id="Path" stroke="#A5A9AA"></path>
            <path d="M77,40.5725105 L107.487805,40.5725105 C111.084391,40.5725105 114,43.4881196 114,47.0847057 L114,47.0847057 C113.986565,50.6717631 111.074887,53.5725105 107.487805,53.5725105" id="Path" stroke="#B9C1C6"></path>
            <path d="M42,39.5725105 L62,39.5725105" id="Path" stroke="#A5A9AA"></path>
            <path d="M0,39.5725105 L27,39.5725105" id="Path" stroke="#B9C1C6" fill="#D8D8D8"></path>
        </g>
    </g>
</svg>