<?xml version="1.0" encoding="UTF-8"?>
<svg width="136px" height="154px" viewBox="0 0 136 154" version="1.1" xmlns="http://www.w3.org/2000/svg" xmlns:xlink="http://www.w3.org/1999/xlink">
    <!-- Generator: Sketch 58 (84663) - https://sketch.com -->
    <title>day-partially-clear-with-rain</title>
    <desc>Created with Sketch.</desc>
    <defs>
        <linearGradient x1="24.3617045%" y1="72.8710337%" x2="63.6421593%" y2="39.9796521%" id="linearGradient-1">
            <stop stop-color="#F2F2F2" offset="0%"></stop>
            <stop stop-color="#CFCFCF" offset="100%"></stop>
        </linearGradient>
        <linearGradient x1="72.5161778%" y1="64.9090909%" x2="8.62380839%" y2="22.6545455%" id="linearGradient-2">
            <stop stop-color="#FFFFFF" offset="2%"></stop>
            <stop stop-color="#FFFFFF" stop-opacity="0" offset="100%"></stop>
        </linearGradient>
    </defs>
    <g id="Page-1" stroke="none" stroke-width="1" fill="none" fill-rule="evenodd">
        <g id="day-partially-clear-with-rain" transform="translate(0.000000, 2.000000)">
            <circle id="Oval" fill="#EFCC00" fill-rule="nonzero" cx="84.5" cy="49.681863" r="31.5"></circle>
            <path d="M84,0.181862989 L84,11.181863" id="Path" stroke="#EFCC00" stroke-width="3" stroke-linecap="round"></path>
            <path d="M84,88.181863 L84,99.181863" id="Path" stroke="#EFCC00" stroke-width="3" stroke-linecap="round"></path>
            <path d="M34,50.181863 L45,50.181863" id="Path" stroke="#EFCC00" stroke-width="3" stroke-linecap="round"></path>
            <path d="M123,50.181863 L134,50.181863" id="Path" stroke="#EFCC00" stroke-width="3" stroke-linecap="round"></path>
            <path d="M49,14.181863 L57,22.181863" id="Path" stroke="#EFCC00" stroke-width="3" stroke-linecap="round"></path>
            <path d="M112,77.181863 L120,85.181863" id="Path" stroke="#EFCC00" stroke-width="3" stroke-linecap="round"></path>
            <path d="M49,85.181863 L57,77.181863" id="Path" stroke="#EFCC00" stroke-width="3" stroke-linecap="round"></path>
            <path d="M112,22.181863 L120,14.181863" id="Path" stroke="#EFCC00" stroke-width="3" stroke-linecap="round"></path>
            <path d="M43.6759917,34.181863 C59.8900952,34.1492058 74.7864611,43.070145 82.3604414,57.3487861 C94.8397967,50.0818082 110.55339,51.382919 121.656555,60.6025676 C132.75972,69.8222161 136.871287,84.9831696 131.938648,98.5166553 C127.006009,112.050141 114.08701,121.053787 99.6311764,121.03272 L43.6759917,121.181863 C19.5544075,121.181863 0,101.70627 0,77.6819079 C0,53.6575461 19.5544075,34.181863 43.6759917,34.181863 Z" id="Path" fill="url(#linearGradient-1)" fill-rule="nonzero"></path>
            <ellipse id="Oval" fill="url(#linearGradient-2)" fill-rule="nonzero" transform="translate(99.376091, 87.169323) rotate(-74.390000) translate(-99.376091, -87.169323) " cx="99.3760914" cy="87.1693226" rx="34.1705349" ry="34.2478481"></ellipse>
            <path d="M66,133.181863 L66,150.181863" id="Path" stroke="#0BAEFF" stroke-width="3" stroke-linecap="round"></path>
            <path d="M51,128.181863 L51,145.181863" id="Path" stroke="#0BAEFF" stroke-width="3" stroke-linecap="round"></path>
            <path d="M81,128.181863 L81,145.181863" id="Path" stroke="#0BAEFF" stroke-width="3" stroke-linecap="round"></path>
        </g>
    </g>
</svg>